<svg width="168" height="13" viewBox="0 0 168 13" fill="none" xmlns="http://www.w3.org/2000/svg">
<path d="M6.24 0.575999C7.65867 0.575999 8.82667 0.922666 9.744 1.616C10.6613 2.30933 11.232 3.248 11.456 4.432H8.56C8.368 4.02667 8.07467 3.70667 7.68 3.472C7.28533 3.22667 6.81067 3.104 6.256 3.104C5.392 3.104 4.69867 3.39733 4.176 3.984C3.65333 4.56 3.392 5.344 3.392 6.336C3.392 7.41333 3.664 8.24 4.208 8.816C4.76267 9.392 5.54667 9.68 6.56 9.68C7.21067 9.68 7.78133 9.504 8.272 9.152C8.76267 8.78933 9.10933 8.27733 9.312 7.616H5.856V5.648H11.6V8.352C11.3867 9.01333 11.0453 9.62667 10.576 10.192C10.1067 10.7573 9.504 11.216 8.768 11.568C8.04267 11.92 7.21067 12.096 6.272 12.096C5.13067 12.096 4.13333 11.856 3.28 11.376C2.42667 10.8853 1.76533 10.2027 1.296 9.328C0.837333 8.45333 0.608 7.456 0.608 6.336C0.608 5.216 0.837333 4.21867 1.296 3.344C1.76533 2.46933 2.42133 1.792 3.264 1.312C4.11733 0.821333 5.10933 0.575999 6.24 0.575999ZM21.4395 9.936H17.1995L16.4955 12H13.6155L17.7595 0.768H20.9115L25.0555 12H22.1435L21.4395 9.936ZM20.7355 7.856L19.3275 3.696L17.9035 7.856H20.7355ZM34.203 6.176C34.8857 6.336 35.4243 6.66667 35.819 7.168C36.2243 7.66933 36.427 8.25067 36.427 8.912C36.427 9.88267 36.1017 10.64 35.451 11.184C34.811 11.728 33.8883 12 32.683 12H27.419V0.688H32.555C33.707 0.688 34.5977 0.938666 35.227 1.44C35.8563 1.94133 36.171 2.656 36.171 3.584C36.171 4.26667 35.9897 4.83733 35.627 5.296C35.2643 5.744 34.7897 6.03733 34.203 6.176ZM30.155 5.312H31.947C32.8963 5.312 33.371 4.90667 33.371 4.096C33.371 3.28533 32.8857 2.88 31.915 2.88H30.155V5.312ZM32.107 9.776C33.1203 9.776 33.627 9.36 33.627 8.528C33.627 8.12267 33.4937 7.808 33.227 7.584C32.9603 7.34933 32.5817 7.232 32.091 7.232H30.155V9.776H32.107ZM44.9801 12L42.5321 7.728H41.9081V12H39.1721V0.688H43.8441C44.7401 0.688 45.4975 0.842666 46.1161 1.152C46.7348 1.46133 47.1988 1.888 47.5081 2.432C47.8175 2.96533 47.9721 3.57867 47.9721 4.272C47.9721 5.09333 47.7428 5.792 47.2841 6.368C46.8361 6.944 46.1801 7.33867 45.3161 7.552L48.0041 12H44.9801ZM41.9081 5.856H43.6041C44.1481 5.856 44.5481 5.73867 44.8041 5.504C45.0601 5.25867 45.1881 4.90133 45.1881 4.432C45.1881 3.984 45.0548 3.632 44.7881 3.376C44.5321 3.12 44.1375 2.992 43.6041 2.992H41.9081V5.856ZM53.38 0.688V12H50.644V0.688H53.38ZM59.305 2.864V5.232H63.129V7.296H59.305V9.808H63.609V12H56.569V0.688H63.609V2.864H59.305ZM69.1988 9.904H72.8468V12H66.4628V0.688H69.1988V9.904ZM78.1394 9.904H81.7874V12H75.4034V0.688H78.1394V9.904ZM87.08 2.864V5.232H90.904V7.296H87.08V9.808H91.384V12H84.344V0.688H91.384V2.864H87.08ZM103.909 0.575999C105.349 0.575999 106.538 0.954666 107.477 1.712C108.426 2.46933 109.04 3.49333 109.317 4.784H106.421C106.208 4.26133 105.877 3.85067 105.429 3.552C104.992 3.25333 104.469 3.104 103.861 3.104C103.061 3.104 102.416 3.39733 101.925 3.984C101.434 4.57067 101.189 5.35467 101.189 6.336C101.189 7.31733 101.434 8.10133 101.925 8.688C102.416 9.264 103.061 9.552 103.861 9.552C104.469 9.552 104.992 9.40267 105.429 9.104C105.877 8.80533 106.208 8.4 106.421 7.888H109.317C109.04 9.168 108.426 10.192 107.477 10.96C106.538 11.7173 105.349 12.096 103.909 12.096C102.81 12.096 101.845 11.856 101.013 11.376C100.181 10.8853 99.5355 10.2027 99.0769 9.328C98.6289 8.45333 98.4049 7.456 98.4049 6.336C98.4049 5.216 98.6289 4.21867 99.0769 3.344C99.5355 2.46933 100.181 1.792 101.013 1.312C101.845 0.821333 102.81 0.575999 103.909 0.575999ZM121.926 0.688V12H119.174V7.28H114.886V12H112.15V0.688H114.886V5.072H119.174V0.688H121.926ZM132.114 9.936H127.874L127.17 12H124.29L128.434 0.768H131.586L135.73 12H132.818L132.114 9.936ZM131.41 7.856L130.002 3.696L128.578 7.856H131.41ZM148.142 12H145.406L140.83 5.056V12H138.094V0.688H140.83L145.406 7.696V0.688H148.142V12ZM154.067 2.864V5.232H157.891V7.296H154.067V9.808H158.371V12H151.331V0.688H158.371V2.864H154.067ZM163.961 9.904H167.609V12H161.225V0.688H163.961V9.904Z" fill="white"/>
</svg>
