<svg width="140" height="13" viewBox="0 0 140 13" fill="none" xmlns="http://www.w3.org/2000/svg">
<path d="M9.072 0.688V2.864H6V12H3.248V2.864H0.208V0.688H9.072ZM21.3013 0.688V12H18.5493V7.28H14.2613V12H11.5253V0.688H14.2613V5.072H18.5493V0.688H21.3013ZM27.2175 2.864V5.232H31.0415V7.296H27.2175V9.808H31.5215V12H24.4815V0.688H31.5215V2.864H27.2175ZM41.6144 0.688V12H38.8784V0.688H41.6144ZM49.9714 0.575999C51.4114 0.575999 52.6007 0.954666 53.5394 1.712C54.4887 2.46933 55.102 3.49333 55.3794 4.784H52.4834C52.27 4.26133 51.9394 3.85067 51.4914 3.552C51.054 3.25333 50.5314 3.104 49.9234 3.104C49.1234 3.104 48.478 3.39733 47.9874 3.984C47.4967 4.57067 47.2514 5.35467 47.2514 6.336C47.2514 7.31733 47.4967 8.10133 47.9874 8.688C48.478 9.264 49.1234 9.552 49.9234 9.552C50.5314 9.552 51.054 9.40267 51.4914 9.104C51.9394 8.80533 52.27 8.4 52.4834 7.888H55.3794C55.102 9.168 54.4887 10.192 53.5394 10.96C52.6007 11.7173 51.4114 12.096 49.9714 12.096C48.8727 12.096 47.9074 11.856 47.0754 11.376C46.2434 10.8853 45.598 10.2027 45.1394 9.328C44.6914 8.45333 44.4674 7.456 44.4674 6.336C44.4674 5.216 44.6914 4.21867 45.1394 3.344C45.598 2.46933 46.2434 1.792 47.0754 1.312C47.9074 0.821333 48.8727 0.575999 49.9714 0.575999ZM63.5887 0.511999C64.6554 0.511999 65.6207 0.762666 66.4847 1.264C67.3594 1.75467 68.0474 2.44267 68.5487 3.328C69.0501 4.20267 69.3007 5.19467 69.3007 6.304C69.3007 7.41333 69.0447 8.41067 68.5328 9.296C68.0314 10.1813 67.3434 10.8747 66.4688 11.376C65.6047 11.8667 64.6447 12.112 63.5887 12.112C62.5327 12.112 61.5674 11.8667 60.6927 11.376C59.8287 10.8747 59.1407 10.1813 58.6287 9.296C58.1274 8.41067 57.8767 7.41333 57.8767 6.304C57.8767 5.19467 58.1274 4.20267 58.6287 3.328C59.1407 2.44267 59.8287 1.75467 60.6927 1.264C61.5674 0.762666 62.5327 0.511999 63.5887 0.511999ZM63.5887 3.056C62.6927 3.056 61.9781 3.34933 61.4447 3.936C60.9221 4.512 60.6607 5.30133 60.6607 6.304C60.6607 7.296 60.9221 8.08533 61.4447 8.672C61.9781 9.25867 62.6927 9.552 63.5887 9.552C64.4741 9.552 65.1834 9.25867 65.7167 8.672C66.2501 8.08533 66.5167 7.296 66.5167 6.304C66.5167 5.312 66.2501 4.52267 65.7167 3.936C65.1941 3.34933 64.4847 3.056 63.5887 3.056ZM82.1857 12H79.4497L74.8737 5.056V12H72.1377V0.688H74.8737L79.4497 7.696V0.688H82.1857V12ZM88.1113 0.688V12H85.3753V0.688H88.1113ZM96.4682 0.575999C97.9082 0.575999 99.0976 0.954666 100.036 1.712C100.986 2.46933 101.599 3.49333 101.876 4.784H98.9802C98.7669 4.26133 98.4362 3.85067 97.9882 3.552C97.5509 3.25333 97.0282 3.104 96.4202 3.104C95.6202 3.104 94.9749 3.39733 94.4842 3.984C93.9936 4.57067 93.7482 5.35467 93.7482 6.336C93.7482 7.31733 93.9936 8.10133 94.4842 8.688C94.9749 9.264 95.6202 9.552 96.4202 9.552C97.0282 9.552 97.5509 9.40267 97.9882 9.104C98.4362 8.80533 98.7669 8.4 98.9802 7.888H101.876C101.599 9.168 100.986 10.192 100.036 10.96C99.0976 11.7173 97.9082 12.096 96.4682 12.096C95.3696 12.096 94.4042 11.856 93.5722 11.376C92.7402 10.8853 92.0949 10.2027 91.6362 9.328C91.1882 8.45333 90.9642 7.456 90.9642 6.336C90.9642 5.216 91.1882 4.21867 91.6362 3.344C92.0949 2.46933 92.7402 1.792 93.5722 1.312C94.4042 0.821333 95.3696 0.575999 96.4682 0.575999ZM119.261 12H116.525L111.949 5.056V12H109.213V0.688H111.949L116.525 7.696V0.688H119.261V12ZM125.202 0.655999C126.205 0.655999 127 0.911999 127.586 1.424C128.184 1.936 128.482 2.63467 128.482 3.52C128.482 4.416 128.189 5.13067 127.602 5.664C127.026 6.18667 126.242 6.448 125.25 6.448C124.258 6.448 123.453 6.18133 122.834 5.648C122.216 5.11467 121.906 4.40533 121.906 3.52C121.906 2.63467 122.205 1.936 122.802 1.424C123.4 0.911999 124.2 0.655999 125.202 0.655999ZM125.218 2.112C124.877 2.112 124.589 2.23467 124.354 2.48C124.13 2.71467 124.018 3.072 124.018 3.552C124.018 4.01067 124.136 4.36267 124.37 4.608C124.616 4.85333 124.909 4.976 125.25 4.976C125.581 4.976 125.853 4.85333 126.066 4.608C126.28 4.36267 126.386 4.01067 126.386 3.552C126.386 3.072 126.274 2.71467 126.05 2.48C125.826 2.23467 125.549 2.112 125.218 2.112ZM139.205 2.816H134.117V5.104C134.341 4.848 134.651 4.65067 135.045 4.512C135.451 4.36267 135.888 4.288 136.357 4.288C137.115 4.288 137.749 4.45867 138.261 4.8C138.773 5.13067 139.152 5.57867 139.397 6.144C139.643 6.70933 139.765 7.33333 139.765 8.016C139.765 9.25333 139.419 10.2347 138.725 10.96C138.032 11.6747 137.056 12.032 135.797 12.032C134.944 12.032 134.203 11.8827 133.573 11.584C132.944 11.2747 132.459 10.848 132.117 10.304C131.776 9.76 131.595 9.13067 131.573 8.416H134.245C134.299 8.77867 134.443 9.07733 134.677 9.312C134.923 9.54667 135.253 9.664 135.669 9.664C136.149 9.664 136.507 9.50933 136.741 9.2C136.987 8.89067 137.109 8.48 137.109 7.968C137.109 7.47733 136.981 7.09867 136.725 6.832C136.469 6.56533 136.112 6.432 135.653 6.432C135.301 6.432 135.008 6.512 134.773 6.672C134.539 6.82133 134.379 7.01867 134.293 7.264H131.637V0.415999H139.205V2.816Z" fill="white"/>
</svg>
