<svg width="131" height="13" viewBox="0 0 131 13" fill="none" xmlns="http://www.w3.org/2000/svg">
<path d="M9.072 0.688V2.864H6V12H3.248V2.864H0.208V0.688H9.072ZM21.3013 0.688V12H18.5493V7.28H14.2613V12H11.5253V0.688H14.2613V5.072H18.5493V0.688H21.3013ZM27.2175 2.864V5.232H31.0415V7.296H27.2175V9.808H31.5215V12H24.4815V0.688H31.5215V2.864H27.2175ZM48.9264 12H46.1904L41.6144 5.056V12H38.8784V0.688H41.6144L46.1904 7.696V0.688H48.9264V12ZM54.8519 2.864V5.232H58.6759V7.296H54.8519V9.808H59.1559V12H52.1159V0.688H59.1559V2.864H54.8519ZM67.1776 0.575999C68.6176 0.575999 69.807 0.954666 70.7456 1.712C71.695 2.46933 72.3083 3.49333 72.5856 4.784H69.6896C69.4763 4.26133 69.1456 3.85067 68.6976 3.552C68.2603 3.25333 67.7376 3.104 67.1296 3.104C66.3296 3.104 65.6843 3.39733 65.1936 3.984C64.703 4.57067 64.4576 5.35467 64.4576 6.336C64.4576 7.31733 64.703 8.10133 65.1936 8.688C65.6843 9.264 66.3296 9.552 67.1296 9.552C67.7376 9.552 68.2603 9.40267 68.6976 9.104C69.1456 8.80533 69.4763 8.4 69.6896 7.888H72.5856C72.3083 9.168 71.695 10.192 70.7456 10.96C69.807 11.7173 68.6176 12.096 67.1776 12.096C66.079 12.096 65.1136 11.856 64.2816 11.376C63.4496 10.8853 62.8043 10.2027 62.3456 9.328C61.8976 8.45333 61.6736 7.456 61.6736 6.336C61.6736 5.216 61.8976 4.21867 62.3456 3.344C62.8043 2.46933 63.4496 1.792 64.2816 1.312C65.1136 0.821333 66.079 0.575999 67.1776 0.575999ZM80.747 6.224L85.307 12H81.995L78.155 6.928V12H75.419V0.688H78.155V5.664L82.027 0.688H85.307L80.747 6.224ZM90.5019 9.904H94.1499V12H87.7659V0.688H90.5019V9.904ZM103.714 9.936H99.4745L98.7705 12H95.8905L100.034 0.768H103.186L107.33 12H104.418L103.714 9.936ZM103.01 7.856L101.602 3.696L100.178 7.856H103.01ZM114.862 0.575999C116.302 0.575999 117.491 0.954666 118.43 1.712C119.379 2.46933 119.993 3.49333 120.27 4.784H117.374C117.161 4.26133 116.83 3.85067 116.382 3.552C115.945 3.25333 115.422 3.104 114.814 3.104C114.014 3.104 113.369 3.39733 112.878 3.984C112.387 4.57067 112.142 5.35467 112.142 6.336C112.142 7.31733 112.387 8.10133 112.878 8.688C113.369 9.264 114.014 9.552 114.814 9.552C115.422 9.552 115.945 9.40267 116.382 9.104C116.83 8.80533 117.161 8.4 117.374 7.888H120.27C119.993 9.168 119.379 10.192 118.43 10.96C117.491 11.7173 116.302 12.096 114.862 12.096C113.763 12.096 112.798 11.856 111.966 11.376C111.134 10.8853 110.489 10.2027 110.03 9.328C109.582 8.45333 109.358 7.456 109.358 6.336C109.358 5.216 109.582 4.21867 110.03 3.344C110.489 2.46933 111.134 1.792 111.966 1.312C112.798 0.821333 113.763 0.575999 114.862 0.575999ZM125.839 2.864V5.232H129.663V7.296H125.839V9.808H130.143V12H123.103V0.688H130.143V2.864H125.839Z" fill="white"/>
</svg>
