<svg width="122" height="13" viewBox="0 0 122 13" fill="none" xmlns="http://www.w3.org/2000/svg">
<path d="M9.072 8.816C9.072 9.41333 8.91733 9.96267 8.608 10.464C8.30933 10.9653 7.86133 11.3653 7.264 11.664C6.67733 11.9627 5.96267 12.112 5.12 12.112C3.85067 12.112 2.80533 11.8027 1.984 11.184C1.16267 10.5653 0.714667 9.70133 0.64 8.592H3.552C3.59467 9.01867 3.744 9.35467 4 9.6C4.26667 9.84533 4.60267 9.968 5.008 9.968C5.36 9.968 5.63733 9.872 5.84 9.68C6.04267 9.488 6.144 9.232 6.144 8.912C6.144 8.624 6.048 8.384 5.856 8.192C5.67467 8 5.44533 7.84533 5.168 7.728C4.89067 7.6 4.50667 7.45067 4.016 7.28C3.30133 7.03467 2.71467 6.8 2.256 6.576C1.808 6.34133 1.41867 6 1.088 5.552C0.768 5.09333 0.608 4.50133 0.608 3.776C0.608 3.104 0.778667 2.52267 1.12 2.032C1.46133 1.54133 1.93067 1.168 2.528 0.912C3.136 0.645333 3.82933 0.511999 4.608 0.511999C5.86667 0.511999 6.864 0.810666 7.6 1.408C8.34667 2.00533 8.768 2.82667 8.864 3.872H5.904C5.85067 3.49867 5.712 3.20533 5.488 2.992C5.27467 2.768 4.98133 2.656 4.608 2.656C4.288 2.656 4.02667 2.74133 3.824 2.912C3.632 3.08267 3.536 3.33333 3.536 3.664C3.536 3.93067 3.62133 4.16 3.792 4.352C3.97333 4.53333 4.19733 4.68267 4.464 4.8C4.73067 4.91733 5.11467 5.06667 5.616 5.248C6.34133 5.49333 6.93333 5.73867 7.392 5.984C7.85067 6.21867 8.24533 6.56533 8.576 7.024C8.90667 7.48267 9.072 8.08 9.072 8.816ZM18.8926 9.936H14.6526L13.9486 12H11.0686L15.2126 0.768H18.3646L22.5086 12H19.5966L18.8926 9.936ZM18.1886 7.856L16.7806 3.696L15.3566 7.856H18.1886ZM26.9841 0.688L29.7521 9.2L32.5201 0.688H35.4481L31.5121 12H27.9761L24.0561 0.688H26.9841ZM43.1731 0.511999C44.2398 0.511999 45.2051 0.762666 46.0691 1.264C46.9438 1.75467 47.6318 2.44267 48.1331 3.328C48.6345 4.20267 48.8851 5.19467 48.8851 6.304C48.8851 7.41333 48.6291 8.41067 48.1171 9.296C47.6158 10.1813 46.9278 10.8747 46.0531 11.376C45.1891 11.8667 44.2291 12.112 43.1731 12.112C42.1171 12.112 41.1518 11.8667 40.2771 11.376C39.4131 10.8747 38.7251 10.1813 38.2131 9.296C37.7118 8.41067 37.4611 7.41333 37.4611 6.304C37.4611 5.19467 37.7118 4.20267 38.2131 3.328C38.7251 2.44267 39.4131 1.75467 40.2771 1.264C41.1518 0.762666 42.1171 0.511999 43.1731 0.511999ZM43.1731 3.056C42.2771 3.056 41.5625 3.34933 41.0291 3.936C40.5065 4.512 40.2451 5.30133 40.2451 6.304C40.2451 7.296 40.5065 8.08533 41.0291 8.672C41.5625 9.25867 42.2771 9.552 43.1731 9.552C44.0585 9.552 44.7678 9.25867 45.3011 8.672C45.8345 8.08533 46.1011 7.296 46.1011 6.304C46.1011 5.312 45.8345 4.52267 45.3011 3.936C44.7785 3.34933 44.0691 3.056 43.1731 3.056ZM54.4581 0.688V12H51.7221V0.688H54.4581ZM63.4551 12L61.0071 7.728H60.3831V12H57.6471V0.688H62.3191C63.2151 0.688 63.9725 0.842666 64.5911 1.152C65.2098 1.46133 65.6738 1.888 65.9831 2.432C66.2925 2.96533 66.4471 3.57867 66.4471 4.272C66.4471 5.09333 66.2178 5.792 65.7591 6.368C65.3111 6.944 64.6551 7.33867 63.7911 7.552L66.4791 12H63.4551ZM60.3831 5.856H62.0791C62.6231 5.856 63.0231 5.73867 63.2791 5.504C63.5351 5.25867 63.6631 4.90133 63.6631 4.432C63.6631 3.984 63.5298 3.632 63.2631 3.376C63.0071 3.12 62.6125 2.992 62.0791 2.992H60.3831V5.856ZM80.9981 0.688V2.864H76.3581V5.344H79.9421V7.424H76.3581V12H73.6221V0.688H80.9981ZM90.7114 9.936H86.4714L85.7674 12H82.8874L87.0314 0.768H90.1834L94.3274 12H91.4154L90.7114 9.936ZM90.0074 7.856L88.5994 3.696L87.1754 7.856H90.0074ZM99.4269 0.688V12H96.6909V0.688H99.4269ZM108.424 12L105.976 7.728H105.352V12H102.616V0.688H107.288C108.184 0.688 108.941 0.842666 109.56 1.152C110.179 1.46133 110.643 1.888 110.952 2.432C111.261 2.96533 111.416 3.57867 111.416 4.272C111.416 5.09333 111.187 5.792 110.728 6.368C110.28 6.944 109.624 7.33867 108.76 7.552L111.448 12H108.424ZM105.352 5.856H107.048C107.592 5.856 107.992 5.73867 108.248 5.504C108.504 5.25867 108.632 4.90133 108.632 4.432C108.632 3.984 108.499 3.632 108.232 3.376C107.976 3.12 107.581 2.992 107.048 2.992H105.352V5.856ZM116.824 2.864V5.232H120.648V7.296H116.824V9.808H121.128V12H114.088V0.688H121.128V2.864H116.824Z" fill="white"/>
</svg>
