<svg width="136" height="13" viewBox="0 0 136 13" fill="none" xmlns="http://www.w3.org/2000/svg">
<path d="M3.68 0.688V12H0.944V0.688H3.68ZM16.917 12H14.181L9.605 5.056V12H6.869V0.688H9.605L14.181 7.696V0.688H16.917V12ZM28.2345 0.688V2.864H25.1625V12H22.4105V2.864H19.3705V0.688H28.2345ZM36.4957 12L34.0477 7.728H33.4237V12H30.6877V0.688H35.3597C36.2558 0.688 37.0131 0.842666 37.6318 1.152C38.2504 1.46133 38.7144 1.888 39.0238 2.432C39.3331 2.96533 39.4878 3.57867 39.4878 4.272C39.4878 5.09333 39.2584 5.792 38.7998 6.368C38.3518 6.944 37.6958 7.33867 36.8317 7.552L39.5197 12H36.4957ZM33.4237 5.856H35.1198C35.6638 5.856 36.0637 5.73867 36.3197 5.504C36.5758 5.25867 36.7038 4.90133 36.7038 4.432C36.7038 3.984 36.5704 3.632 36.3038 3.376C36.0477 3.12 35.6531 2.992 35.1198 2.992H33.4237V5.856ZM47.5356 0.511999C48.6023 0.511999 49.5676 0.762666 50.4316 1.264C51.3063 1.75467 51.9943 2.44267 52.4956 3.328C52.997 4.20267 53.2476 5.19467 53.2476 6.304C53.2476 7.41333 52.9916 8.41067 52.4796 9.296C51.9783 10.1813 51.2903 10.8747 50.4156 11.376C49.5516 11.8667 48.5916 12.112 47.5356 12.112C46.4796 12.112 45.5143 11.8667 44.6396 11.376C43.7756 10.8747 43.0876 10.1813 42.5756 9.296C42.0743 8.41067 41.8236 7.41333 41.8236 6.304C41.8236 5.19467 42.0743 4.20267 42.5756 3.328C43.0876 2.44267 43.7756 1.75467 44.6396 1.264C45.5143 0.762666 46.4796 0.511999 47.5356 0.511999ZM47.5356 3.056C46.6396 3.056 45.925 3.34933 45.3916 3.936C44.869 4.512 44.6076 5.30133 44.6076 6.304C44.6076 7.296 44.869 8.08533 45.3916 8.672C45.925 9.25867 46.6396 9.552 47.5356 9.552C48.421 9.552 49.1303 9.25867 49.6636 8.672C50.197 8.08533 50.4636 7.296 50.4636 6.304C50.4636 5.312 50.197 4.52267 49.6636 3.936C49.141 3.34933 48.4316 3.056 47.5356 3.056ZM66.2606 6.32C66.2606 7.42933 66.0206 8.416 65.5406 9.28C65.0713 10.1333 64.3886 10.8 63.4926 11.28C62.6073 11.76 61.562 12 60.3566 12H56.0846V0.688H60.3566C61.5726 0.688 62.6233 0.922666 63.5086 1.392C64.394 1.86133 65.0713 2.52267 65.5406 3.376C66.0206 4.22933 66.2606 5.21067 66.2606 6.32ZM60.1166 9.552C61.1833 9.552 62.01 9.26933 62.5966 8.704C63.194 8.13867 63.4926 7.344 63.4926 6.32C63.4926 5.296 63.194 4.50133 62.5966 3.936C62.01 3.37067 61.1833 3.088 60.1166 3.088H58.8206V9.552H60.1166ZM71.775 0.688V7.216C71.775 7.96267 71.9403 8.53333 72.271 8.928C72.6123 9.32267 73.103 9.52 73.743 9.52C74.383 9.52 74.8683 9.32267 75.199 8.928C75.5403 8.53333 75.711 7.96267 75.711 7.216V0.688H78.447V7.216C78.447 8.28267 78.239 9.184 77.823 9.92C77.407 10.6453 76.8363 11.1947 76.111 11.568C75.3963 11.9307 74.5857 12.112 73.679 12.112C72.7723 12.112 71.9723 11.9307 71.279 11.568C70.5857 11.2053 70.0417 10.656 69.647 9.92C69.2523 9.184 69.055 8.28267 69.055 7.216V0.688H71.775ZM86.7432 0.575999C88.1832 0.575999 89.3726 0.954666 90.3112 1.712C91.2606 2.46933 91.8739 3.49333 92.1512 4.784H89.2552C89.0419 4.26133 88.7112 3.85067 88.2632 3.552C87.8259 3.25333 87.3032 3.104 86.6952 3.104C85.8952 3.104 85.2499 3.39733 84.7592 3.984C84.2686 4.57067 84.0232 5.35467 84.0232 6.336C84.0232 7.31733 84.2686 8.10133 84.7592 8.688C85.2499 9.264 85.8952 9.552 86.6952 9.552C87.3032 9.552 87.8259 9.40267 88.2632 9.104C88.7112 8.80533 89.0419 8.4 89.2552 7.888H92.1512C91.8739 9.168 91.2606 10.192 90.3112 10.96C89.3726 11.7173 88.1832 12.096 86.7432 12.096C85.6446 12.096 84.6792 11.856 83.8472 11.376C83.0152 10.8853 82.3699 10.2027 81.9112 9.328C81.4632 8.45333 81.2392 7.456 81.2392 6.336C81.2392 5.216 81.4632 4.21867 81.9112 3.344C82.3699 2.46933 83.0152 1.792 83.8472 1.312C84.6792 0.821333 85.6446 0.575999 86.7432 0.575999ZM103.113 0.688V2.864H100.041V12H97.2886V2.864H94.2486V0.688H103.113ZM108.302 0.688V12H105.566V0.688H108.302ZM116.867 0.511999C117.934 0.511999 118.899 0.762666 119.763 1.264C120.638 1.75467 121.326 2.44267 121.827 3.328C122.328 4.20267 122.579 5.19467 122.579 6.304C122.579 7.41333 122.323 8.41067 121.811 9.296C121.31 10.1813 120.622 10.8747 119.747 11.376C118.883 11.8667 117.923 12.112 116.867 12.112C115.811 12.112 114.846 11.8667 113.971 11.376C113.107 10.8747 112.419 10.1813 111.907 9.296C111.406 8.41067 111.155 7.41333 111.155 6.304C111.155 5.19467 111.406 4.20267 111.907 3.328C112.419 2.44267 113.107 1.75467 113.971 1.264C114.846 0.762666 115.811 0.511999 116.867 0.511999ZM116.867 3.056C115.971 3.056 115.256 3.34933 114.723 3.936C114.2 4.512 113.939 5.30133 113.939 6.304C113.939 7.296 114.2 8.08533 114.723 8.672C115.256 9.25867 115.971 9.552 116.867 9.552C117.752 9.552 118.462 9.25867 118.995 8.672C119.528 8.08533 119.795 7.296 119.795 6.304C119.795 5.312 119.528 4.52267 118.995 3.936C118.472 3.34933 117.763 3.056 116.867 3.056ZM135.464 12H132.728L128.152 5.056V12H125.416V0.688H128.152L132.728 7.696V0.688H135.464V12Z" fill="white"/>
</svg>
