<svg width="50" height="13" viewBox="0 0 50 13" fill="none" xmlns="http://www.w3.org/2000/svg">
<path d="M13.664 0.768V12H10.928V4.976L8.496 12H6.128L3.68 4.96V12H0.944V0.768H4.288L7.344 8.592L10.336 0.768H13.664ZM19.5894 2.864V5.232H23.4134V7.296H19.5894V9.808H23.8934V12H16.8534V0.688H23.8934V2.864H19.5894ZM36.7951 12H34.0591L29.4831 5.056V12H26.7471V0.688H29.4831L34.0591 7.696V0.688H36.7951V12ZM42.6406 0.688V7.216C42.6406 7.96267 42.806 8.53333 43.1366 8.928C43.478 9.32267 43.9686 9.52 44.6086 9.52C45.2486 9.52 45.734 9.32267 46.0646 8.928C46.406 8.53333 46.5766 7.96267 46.5766 7.216V0.688H49.3126V7.216C49.3126 8.28267 49.1046 9.184 48.6886 9.92C48.2726 10.6453 47.702 11.1947 46.9766 11.568C46.262 11.9307 45.4513 12.112 44.5446 12.112C43.638 12.112 42.838 11.9307 42.1446 11.568C41.4513 11.2053 40.9073 10.656 40.5126 9.92C40.118 9.184 39.9206 8.28267 39.9206 7.216V0.688H42.6406Z" fill="white"/>
</svg>
